<svg width="506" height="506" viewBox="0 0 506 506" xmlns="http://www.w3.org/2000/svg">
<path d="M60.0244 401.171C65.2031 417.113 74.6467 431.573 87.624 442.946L87.5427 443.007C108.501 461.285 131.978 475.684 156.917 485.96L305.354 372.069L228.506 271.906L60.0244 401.171Z" />
<path d="M446.987 104.257L278.567 233.482L316.991 283.563L414.432 208.725C437.117 191.321 450.582 165.001 451.516 136.528C451.922 125.439 450.318 114.554 446.987 104.257Z"/>
<path d="M503.851 219.753C502.998 212.909 501.8 206.126 500.338 199.343C489.777 222.414 473.611 242.824 452.856 258.827L305.333 372.089L156.897 485.98C237.441 519.266 333.055 509.924 407.222 453.019C481.369 396.074 515.204 306.126 503.851 219.753Z"/>
<path d="M99.7888 52.3483C25.6822 109.213 -8.21312 199.18 3.13946 285.635C4.01274 292.479 5.17038 299.221 6.6123 306.004C17.1728 282.934 33.2979 262.483 54.0535 246.561L350.114 19.4076C269.549 -13.9393 173.956 -4.55675 99.7888 52.3483Z"/>
<path d="M92.4776 296.642C69.8333 314.006 56.328 340.285 55.4547 368.84C55.0689 379.948 56.6936 390.854 60.0242 401.171L228.485 271.906L190.061 221.825L92.4776 296.642Z"/>
<path d="M419.326 62.4011L419.448 62.2996C398.49 44.0217 375.053 29.6635 350.114 19.3872L201.718 133.319L278.567 233.482L446.987 104.257C441.788 88.2541 432.344 73.7943 419.326 62.4011Z" />
</svg>
